Palanquin Light.ufo
<glyph name="uni02C9" format="1">
  <advance width="272"/>
  <unicode hex="02C9"/>
  <outline>
    <contour>
      <point x="16" y="689" type="line"/>
      <point x="16" y="640" type="line"/>
      <point x="257" y="640" type="line"/>
      <point x="257" y="689" type="line"/>
    </contour>
  </outline>
</glyph>
<glyph name="dv_Na" format="1">
  <advance width="596"/>
  <unicode hex="0928"/>
  <outline>
    <contour>
      <point x="405" y="330" type="line"/>
      <point x="405" y="0" type="line"/>
      <point x="474" y="-16" type="line"/>
      <point x="474" y="626" type="line"/>
      <point x="607" y="626" type="line"/>
      <point x="593" y="680" type="line"/>
      <point x="-11" y="680" type="line"/>
      <point x="3" y="626" type="line"/>
      <point x="405" y="626" type="line"/>
      <point x="405" y="381" type="line"/>
      <point x="71" y="381" type="line" smooth="yes"/>
      <point x="53" y="381"/>
      <point x="41" y="370"/>
      <point x="38" y="356" type="curve" smooth="yes"/>
      <point x="29" y="309"/>
      <point x="81" y="241"/>
      <point x="145" y="241" type="curve" smooth="yes"/>
      <point x="164" y="241"/>
      <point x="174" y="258"/>
      <point x="174" y="286" type="curve" smooth="yes"/>
      <point x="174" y="330" type="line"/>
    </contour>
  </outline>
</glyph>
<glyph name="dv_BhHa" format="1">
  <advance width="930"/>
  <outline>
    <contour>
      <point x="845" y="339" type="line"/>
      <point x="794" y="358"/>
      <point x="743" y="363"/>
      <point x="694" y="363" type="curve" smooth="yes"/>
      <point x="674" y="363"/>
      <point x="659" y="360"/>
      <point x="626" y="360" type="curve" smooth="yes"/>
      <point x="579" y="360"/>
      <point x="544" y="387"/>
      <point x="544" y="424" type="curve" smooth="yes"/>
      <point x="544" y="461"/>
      <point x="579" y="488"/>
      <point x="626" y="488" type="curve" smooth="yes"/>
      <point x="838" y="488" type="line"/>
      <point x="838" y="626" type="line"/>
      <point x="941" y="626" type="line"/>
      <point x="926" y="680" type="line"/>
      <point x="382" y="680" type="line"/>
      <point x="396" y="626" type="line"/>
      <point x="771" y="626" type="line"/>
      <point x="771" y="545" type="line"/>
      <point x="624" y="545" type="line" smooth="yes"/>
      <point x="537" y="545"/>
      <point x="478" y="496"/>
      <point x="478" y="423" type="curve" smooth="yes"/>
      <point x="478" y="380"/>
      <point x="500" y="348"/>
      <point x="544" y="324" type="curve"/>
      <point x="543" y="323"/>
      <point x="542" y="322"/>
      <point x="541" y="322" type="curve"/>
      <point x="276" y="322" type="line"/>
      <point x="276" y="534" type="line" smooth="yes"/>
      <point x="276" y="631"/>
      <point x="229" y="694"/>
      <point x="149" y="694" type="curve" smooth="yes"/>
      <point x="87" y="694"/>
      <point x="34" y="652"/>
      <point x="34" y="590" type="curve" smooth="yes"/>
      <point x="34" y="525"/>
      <point x="77" y="481"/>
      <point x="146" y="481" type="curve" smooth="yes"/>
      <point x="162" y="481"/>
      <point x="188" y="486"/>
      <point x="208" y="499" type="curve"/>
      <point x="208" y="322" type="line"/>
      <point x="173" y="322" type="line" smooth="yes"/>
      <point x="156" y="322"/>
      <point x="143" y="310"/>
      <point x="140" y="296" type="curve"/>
      <point x="133" y="250"/>
      <point x="184" y="182"/>
      <point x="248" y="182" type="curve" smooth="yes"/>
      <point x="267" y="182"/>
      <point x="276" y="199"/>
      <point x="276" y="225" type="curve" smooth="yes"/>
      <point x="276" y="270" type="line"/>
      <point x="487" y="270" type="line"/>
      <point x="468" y="242"/>
      <point x="457" y="209"/>
      <point x="457" y="173" type="curve" smooth="yes"/>
      <point x="457" y="54"/>
      <point x="550" y="-18"/>
      <point x="704" y="-18" type="curve" smooth="yes"/>
      <point x="757" y="-18"/>
      <point x="802" y="-13"/>
      <point x="845" y="1" type="curve"/>
      <point x="829" y="58" type="line"/>
      <point x="786" y="46"/>
      <point x="744" y="41"/>
      <point x="701" y="41" type="curve" smooth="yes"/>
      <point x="598" y="41"/>
      <point x="527" y="95"/>
      <point x="527" y="172" type="curve" smooth="yes"/>
      <point x="527" y="248"/>
      <point x="599" y="304"/>
      <point x="698" y="304" type="curve" smooth="yes"/>
      <point x="742" y="304"/>
      <point x="786" y="296"/>
      <point x="829" y="281" type="curve"/>
    </contour>
    <contour>
      <point x="150" y="532" type="curve" smooth="yes"/>
      <point x="122" y="532"/>
      <point x="97" y="552"/>
      <point x="97" y="583" type="curve" smooth="yes"/>
      <point x="97" y="617"/>
      <point x="120" y="635"/>
      <point x="148" y="635" type="curve" smooth="yes"/>
      <point x="186" y="635"/>
      <point x="206" y="605"/>
      <point x="207" y="554" type="curve"/>
      <point x="190" y="540"/>
      <point x="167" y="532"/>
    </contour>
  </outline>
</glyph>
<glyph name="dv_CHa" format="1">
  <advance width="923"/>
  <outline>
    <contour>
      <point x="838" y="339" type="line"/>
      <point x="787" y="358"/>
      <point x="736" y="363"/>
      <point x="687" y="363" type="curve" smooth="yes"/>
      <point x="667" y="363"/>
      <point x="652" y="360"/>
      <point x="619" y="360" type="curve" smooth="yes"/>
      <point x="572" y="360"/>
      <point x="537" y="387"/>
      <point x="537" y="424" type="curve" smooth="yes"/>
      <point x="537" y="461"/>
      <point x="572" y="488"/>
      <point x="619" y="488" type="curve" smooth="yes"/>
      <point x="831" y="488" type="line"/>
      <point x="831" y="626" type="line"/>
      <point x="934" y="626" type="line"/>
      <point x="919" y="680" type="line"/>
      <point x="-11" y="680" type="line"/>
      <point x="3" y="626" type="line"/>
      <point x="764" y="626" type="line"/>
      <point x="764" y="545" type="line"/>
      <point x="617" y="545" type="line" smooth="yes"/>
      <point x="530" y="545"/>
      <point x="471" y="496"/>
      <point x="471" y="423" type="curve" smooth="yes"/>
      <point x="471" y="380"/>
      <point x="493" y="348"/>
      <point x="537" y="324" type="curve"/>
      <point x="485" y="289"/>
      <point x="452" y="240"/>
      <point x="450" y="180" type="curve"/>
      <point x="427" y="169"/>
      <point x="398" y="162"/>
      <point x="367" y="162" type="curve" smooth="yes"/>
      <point x="279" y="162"/>
      <point x="221" y="211"/>
      <point x="221" y="292" type="curve" smooth="yes"/>
      <point x="221" y="371"/>
      <point x="273" y="423"/>
      <point x="384" y="423" type="curve" smooth="yes"/>
      <point x="437" y="423" type="line"/>
      <point x="419" y="481" type="line"/>
      <point x="41" y="481" type="line"/>
      <point x="55" y="422" type="line"/>
      <point x="209" y="422" type="line"/>
      <point x="175" y="391"/>
      <point x="153" y="348"/>
      <point x="153" y="292" type="curve" smooth="yes"/>
      <point x="153" y="169"/>
      <point x="245" y="105"/>
      <point x="367" y="105" type="curve" smooth="yes"/>
      <point x="400" y="105"/>
      <point x="430" y="108"/>
      <point x="457" y="118" type="curve"/>
      <point x="482" y="32"/>
      <point x="568" y="-18"/>
      <point x="697" y="-18" type="curve" smooth="yes"/>
      <point x="750" y="-18"/>
      <point x="795" y="-13"/>
      <point x="838" y="1" type="curve"/>
      <point x="822" y="58" type="line"/>
      <point x="779" y="46"/>
      <point x="737" y="41"/>
      <point x="694" y="41" type="curve" smooth="yes"/>
      <point x="591" y="41"/>
      <point x="520" y="95"/>
      <point x="520" y="172" type="curve" smooth="yes"/>
      <point x="520" y="248"/>
      <point x="592" y="304"/>
      <point x="691" y="304" type="curve" smooth="yes"/>
      <point x="735" y="304"/>
      <point x="779" y="296"/>
      <point x="822" y="281" type="curve"/>
    </contour>
  </outline>
</glyph>
<glyph name="dv_DhHa" format="1">
  <advance width="915"/>
  <outline>
    <contour>
      <point x="830" y="339" type="line"/>
      <point x="779" y="358"/>
      <point x="728" y="363"/>
      <point x="679" y="363" type="curve" smooth="yes"/>
      <point x="659" y="363"/>
      <point x="644" y="360"/>
      <point x="611" y="360" type="curve" smooth="yes"/>
      <point x="564" y="360"/>
      <point x="529" y="387"/>
      <point x="529" y="424" type="curve" smooth="yes"/>
      <point x="529" y="461"/>
      <point x="564" y="488"/>
      <point x="611" y="488" type="curve" smooth="yes"/>
      <point x="823" y="488" type="line"/>
      <point x="823" y="626" type="line"/>
      <point x="926" y="626" type="line"/>
      <point x="911" y="680" type="line"/>
      <point x="430" y="680" type="line"/>
      <point x="444" y="626" type="line"/>
      <point x="756" y="626" type="line"/>
      <point x="756" y="545" type="line"/>
      <point x="609" y="545" type="line" smooth="yes"/>
      <point x="522" y="545"/>
      <point x="463" y="496"/>
      <point x="463" y="423" type="curve" smooth="yes"/>
      <point x="463" y="380"/>
      <point x="485" y="348"/>
      <point x="529" y="324" type="curve"/>
      <point x="491" y="299"/>
      <point x="463" y="266"/>
      <point x="450" y="227" type="curve"/>
      <point x="411" y="171"/>
      <point x="355" y="147"/>
      <point x="285" y="147" type="curve" smooth="yes"/>
      <point x="206" y="147"/>
      <point x="148" y="196"/>
      <point x="148" y="255" type="curve" smooth="yes"/>
      <point x="148" y="321"/>
      <point x="183" y="380"/>
      <point x="303" y="380" type="curve" smooth="yes"/>
      <point x="353" y="380" type="line"/>
      <point x="332" y="428" type="line"/>
      <point x="297" y="428" type="line" smooth="yes"/>
      <point x="202" y="428"/>
      <point x="158" y="473"/>
      <point x="158" y="537" type="curve" smooth="yes"/>
      <point x="158" y="597"/>
      <point x="206" y="637"/>
      <point x="265" y="637" type="curve" smooth="yes"/>
      <point x="311" y="637"/>
      <point x="345" y="622"/>
      <point x="366" y="600" type="curve"/>
      <point x="395" y="641" type="line"/>
      <point x="380" y="663"/>
      <point x="325" y="694"/>
      <point x="263" y="694" type="curve" smooth="yes"/>
      <point x="154" y="694"/>
      <point x="88" y="623"/>
      <point x="88" y="538" type="curve" smooth="yes"/>
      <point x="88" y="476"/>
      <point x="122" y="422"/>
      <point x="175" y="405" type="curve"/>
      <point x="111" y="390"/>
      <point x="77" y="326"/>
      <point x="77" y="256" type="curve" smooth="yes"/>
      <point x="77" y="168"/>
      <point x="154" y="87"/>
      <point x="282" y="87" type="curve" smooth="yes"/>
      <point x="344" y="87"/>
      <point x="400" y="104"/>
      <point x="445" y="137" type="curve"/>
      <point x="462" y="39"/>
      <point x="551" y="-18"/>
      <point x="689" y="-18" type="curve" smooth="yes"/>
      <point x="742" y="-18"/>
      <point x="787" y="-13"/>
      <point x="830" y="1" type="curve"/>
      <point x="814" y="58" type="line"/>
      <point x="771" y="46"/>
      <point x="729" y="41"/>
      <point x="686" y="41" type="curve" smooth="yes"/>
      <point x="583" y="41"/>
      <point x="512" y="95"/>
      <point x="512" y="172" type="curve" smooth="yes"/>
      <point x="512" y="248"/>
      <point x="584" y="304"/>
      <point x="683" y="304" type="curve" smooth="yes"/>
      <point x="727" y="304"/>
      <point x="771" y="296"/>
      <point x="814" y="281" type="curve"/>
    </contour>
  </outline>
</glyph>
<glyph name="dv_GRYa" format="1">
  <advance width="931"/>
  <outline>
    <contour>
      <point x="470" y="516" type="curve" smooth="yes"/>
      <point x="470" y="442"/>
      <point x="431" y="389"/>
      <point x="389" y="377" type="curve"/>
      <point x="378" y="363" type="line"/>
      <point x="378" y="267"/>
      <point x="477" y="178"/>
      <point x="595" y="178" type="curve" smooth="yes"/>
      <point x="607" y="178" type="line"/>
      <point x="396" y="20" type="line"/>
      <point x="447" y="-18" type="line"/>
      <point x="742" y="210" type="line"/>
      <point x="742" y="0" type="line"/>
      <point x="810" y="-16" type="line"/>
      <point x="810" y="626" type="line"/>
      <point x="943" y="626" type="line"/>
      <point x="928" y="680" type="line"/>
      <point x="-11" y="680" type="line"/>
      <point x="3" y="626" type="line"/>
      <point x="123" y="626" type="line"/>
      <point x="123" y="322" type="line"/>
      <point x="88" y="322" type="line" smooth="yes"/>
      <point x="72" y="322"/>
      <point x="59" y="310"/>
      <point x="57" y="296" type="curve" smooth="yes"/>
      <point x="48" y="250"/>
      <point x="99" y="182"/>
      <point x="164" y="182" type="curve" smooth="yes"/>
      <point x="183" y="182"/>
      <point x="192" y="199"/>
      <point x="192" y="225" type="curve" smooth="yes"/>
      <point x="192" y="626" type="line"/>
      <point x="391" y="626" type="line"/>
      <point x="440" y="610"/>
      <point x="470" y="572"/>
    </contour>
    <contour>
      <point x="742" y="626" type="line"/>
      <point x="742" y="387" type="line" smooth="yes"/>
      <point x="742" y="292"/>
      <point x="688" y="236"/>
      <point x="595" y="236" type="curve"/>
      <point x="520" y="240"/>
      <point x="456" y="288"/>
      <point x="443" y="344" type="curve"/>
      <point x="506" y="376"/>
      <point x="535" y="446"/>
      <point x="535" y="510" type="curve" smooth="yes"/>
      <point x="535" y="565"/>
      <point x="517" y="604"/>
      <point x="491" y="626" type="curve"/>
    </contour>
  </outline>
</glyph>
<glyph name="dv_GhHa" format="1">
  <advance width="916"/>
  <outline>
    <contour>
      <point x="832" y="339" type="line"/>
      <point x="781" y="358"/>
      <point x="730" y="363"/>
      <point x="681" y="363" type="curve" smooth="yes"/>
      <point x="661" y="363"/>
      <point x="646" y="360"/>
      <point x="613" y="360" type="curve" smooth="yes"/>
      <point x="566" y="360"/>
      <point x="531" y="387"/>
      <point x="531" y="424" type="curve" smooth="yes"/>
      <point x="531" y="461"/>
      <point x="566" y="488"/>
      <point x="613" y="488" type="curve" smooth="yes"/>
      <point x="825" y="488" type="line"/>
      <point x="825" y="626" type="line"/>
      <point x="928" y="626" type="line"/>
      <point x="913" y="680" type="line"/>
      <point x="-11" y="680" type="line"/>
      <point x="3" y="626" type="line"/>
      <point x="125" y="626" type="line"/>
      <point x="103" y="603"/>
      <point x="88" y="570"/>
      <point x="88" y="538" type="curve" smooth="yes"/>
      <point x="88" y="476"/>
      <point x="122" y="422"/>
      <point x="175" y="405" type="curve"/>
      <point x="111" y="390"/>
      <point x="77" y="326"/>
      <point x="77" y="256" type="curve" smooth="yes"/>
      <point x="77" y="168"/>
      <point x="154" y="87"/>
      <point x="282" y="87" type="curve" smooth="yes"/>
      <point x="345" y="87"/>
      <point x="402" y="104"/>
      <point x="447" y="138" type="curve"/>
      <point x="463" y="40"/>
      <point x="552" y="-18"/>
      <point x="691" y="-18" type="curve" smooth="yes"/>
      <point x="744" y="-18"/>
      <point x="789" y="-13"/>
      <point x="832" y="1" type="curve"/>
      <point x="816" y="58" type="line"/>
      <point x="773" y="46"/>
      <point x="731" y="41"/>
      <point x="688" y="41" type="curve" smooth="yes"/>
      <point x="585" y="41"/>
      <point x="514" y="95"/>
      <point x="514" y="172" type="curve" smooth="yes"/>
      <point x="514" y="248"/>
      <point x="586" y="304"/>
      <point x="685" y="304" type="curve" smooth="yes"/>
      <point x="729" y="304"/>
      <point x="773" y="296"/>
      <point x="816" y="281" type="curve"/>
    </contour>
    <contour>
      <point x="285" y="147" type="curve" smooth="yes"/>
      <point x="206" y="147"/>
      <point x="148" y="196"/>
      <point x="148" y="255" type="curve" smooth="yes"/>
      <point x="148" y="321"/>
      <point x="183" y="380"/>
      <point x="303" y="380" type="curve" smooth="yes"/>
      <point x="353" y="380" type="line"/>
      <point x="332" y="428" type="line"/>
      <point x="297" y="428" type="line" smooth="yes"/>
      <point x="202" y="428"/>
      <point x="158" y="472"/>
      <point x="158" y="537" type="curve" smooth="yes"/>
      <point x="158" y="577"/>
      <point x="179" y="612"/>
      <point x="223" y="626" type="curve"/>
      <point x="758" y="626" type="line"/>
      <point x="758" y="545" type="line"/>
      <point x="611" y="545" type="line" smooth="yes"/>
      <point x="524" y="545"/>
      <point x="465" y="496"/>
      <point x="465" y="423" type="curve" smooth="yes"/>
      <point x="465" y="380"/>
      <point x="487" y="348"/>
      <point x="531" y="324" type="curve"/>
      <point x="494" y="299"/>
      <point x="467" y="268"/>
      <point x="454" y="231" type="curve"/>
      <point x="415" y="172"/>
      <point x="357" y="147"/>
    </contour>
  </outline>
</glyph>
<glyph name="dv_HLa" format="1">
  <advance width="1272"/>
  <outline>
    <contour>
      <point x="1082" y="0" type="line"/>
      <point x="1150" y="-16" type="line"/>
      <point x="1150" y="626" type="line"/>
      <point x="1283" y="626" type="line"/>
      <point x="1268" y="680" type="line"/>
      <point x="-11" y="680" type="line"/>
      <point x="3" y="626" type="line"/>
      <point x="378" y="626" type="line"/>
      <point x="378" y="545" type="line"/>
      <point x="231" y="545" type="line" smooth="yes"/>
      <point x="144" y="545"/>
      <point x="85" y="496"/>
      <point x="85" y="423" type="curve" smooth="yes"/>
      <point x="85" y="380"/>
      <point x="107" y="348"/>
      <point x="151" y="324" type="curve"/>
      <point x="97" y="288"/>
      <point x="64" y="236"/>
      <point x="64" y="173" type="curve" smooth="yes"/>
      <point x="64" y="54"/>
      <point x="157" y="-18"/>
      <point x="311" y="-18" type="curve" smooth="yes"/>
      <point x="364" y="-18"/>
      <point x="409" y="-13"/>
      <point x="452" y="1" type="curve"/>
      <point x="436" y="58" type="line"/>
      <point x="393" y="46"/>
      <point x="351" y="41"/>
      <point x="308" y="41" type="curve" smooth="yes"/>
      <point x="205" y="41"/>
      <point x="134" y="95"/>
      <point x="134" y="172" type="curve" smooth="yes"/>
      <point x="134" y="248"/>
      <point x="206" y="304"/>
      <point x="305" y="304" type="curve" smooth="yes"/>
      <point x="487" y="304" type="line"/>
      <point x="490" y="192"/>
      <point x="547" y="97"/>
      <point x="606" y="-18" type="curve"/>
      <point x="662" y="1" type="line"/>
      <point x="597" y="134"/>
      <point x="555" y="200"/>
      <point x="555" y="306" type="curve" smooth="yes"/>
      <point x="555" y="365"/>
      <point x="606" y="420"/>
      <point x="671" y="420" type="curve" smooth="yes"/>
      <point x="755" y="419"/>
      <point x="792" y="360"/>
      <point x="792" y="271" type="curve" smooth="yes"/>
      <point x="793" y="176" type="line"/>
      <point x="861" y="156" type="line"/>
      <point x="861" y="271" type="line" smooth="yes"/>
      <point x="861" y="360"/>
      <point x="898" y="422"/>
      <point x="970" y="422" type="curve" smooth="yes"/>
      <point x="1045" y="422"/>
      <point x="1080" y="364"/>
      <point x="1082" y="277" type="curve"/>
    </contour>
    <contour>
      <point x="233" y="360" type="curve" smooth="yes"/>
      <point x="186" y="360"/>
      <point x="151" y="387"/>
      <point x="151" y="424" type="curve" smooth="yes"/>
      <point x="151" y="461"/>
      <point x="186" y="488"/>
      <point x="233" y="488" type="curve" smooth="yes"/>
      <point x="445" y="488" type="line"/>
      <point x="445" y="626" type="line"/>
      <point x="1082" y="626" type="line"/>
      <point x="1082" y="442" type="line"/>
      <point x="1053" y="466"/>
      <point x="1016" y="480"/>
      <point x="971" y="480" type="curve" smooth="yes"/>
      <point x="908" y="480"/>
      <point x="856" y="452"/>
      <point x="825" y="401" type="curve"/>
      <point x="793" y="451"/>
      <point x="738" y="479"/>
      <point x="671" y="480" type="curve"/>
      <point x="590" y="479"/>
      <point x="521" y="428"/>
      <point x="496" y="363" type="curve"/>
      <point x="301" y="363" type="line" smooth="yes"/>
      <point x="281" y="363"/>
      <point x="266" y="360"/>
    </contour>
  </outline>
</glyph>
<glyph name="dv_HLa.MAR" format="1">
  <advance width="1244"/>
  <outline>
    <contour>
      <point x="971" y="420" type="curve" smooth="yes"/>
      <point x="1037" y="420"/>
      <point x="1087" y="365"/>
      <point x="1087" y="306" type="curve" smooth="yes"/>
      <point x="1087" y="200"/>
      <point x="1045" y="134"/>
      <point x="980" y="1" type="curve"/>
      <point x="1036" y="-18" type="line"/>
      <point x="1097" y="100"/>
      <point x="1154" y="197"/>
      <point x="1154" y="313" type="curve" smooth="yes"/>
      <point x="1154" y="390"/>
      <point x="1090" y="460"/>
      <point x="1005" y="476" type="curve"/>
      <point x="1005" y="626" type="line"/>
      <point x="1255" y="626" type="line"/>
      <point x="1240" y="680" type="line"/>
      <point x="-11" y="680" type="line"/>
      <point x="3" y="626" type="line"/>
      <point x="378" y="626" type="line"/>
      <point x="378" y="545" type="line"/>
      <point x="231" y="545" type="line" smooth="yes"/>
      <point x="144" y="545"/>
      <point x="85" y="496"/>
      <point x="85" y="423" type="curve" smooth="yes"/>
      <point x="85" y="380"/>
      <point x="107" y="348"/>
      <point x="151" y="324" type="curve"/>
      <point x="97" y="288"/>
      <point x="64" y="236"/>
      <point x="64" y="173" type="curve" smooth="yes"/>
      <point x="64" y="54"/>
      <point x="157" y="-18"/>
      <point x="311" y="-18" type="curve" smooth="yes"/>
      <point x="364" y="-18"/>
      <point x="409" y="-13"/>
      <point x="452" y="1" type="curve"/>
      <point x="436" y="58" type="line"/>
      <point x="393" y="46"/>
      <point x="351" y="41"/>
      <point x="308" y="41" type="curve" smooth="yes"/>
      <point x="205" y="41"/>
      <point x="134" y="95"/>
      <point x="134" y="172" type="curve" smooth="yes"/>
      <point x="134" y="248"/>
      <point x="206" y="304"/>
      <point x="305" y="304" type="curve" smooth="yes"/>
      <point x="487" y="304" type="line"/>
      <point x="490" y="192"/>
      <point x="547" y="97"/>
      <point x="606" y="-18" type="curve"/>
      <point x="662" y="1" type="line"/>
      <point x="597" y="134"/>
      <point x="555" y="200"/>
      <point x="555" y="306" type="curve" smooth="yes"/>
      <point x="555" y="365"/>
      <point x="606" y="420"/>
      <point x="671" y="420" type="curve" smooth="yes"/>
      <point x="755" y="419"/>
      <point x="792" y="360"/>
      <point x="792" y="271" type="curve" smooth="yes"/>
      <point x="793" y="176" type="line"/>
      <point x="861" y="156" type="line"/>
      <point x="861" y="271" type="line" smooth="yes"/>
      <point x="861" y="360"/>
      <point x="899" y="420"/>
    </contour>
    <contour>
      <point x="233" y="360" type="curve" smooth="yes"/>
      <point x="186" y="360"/>
      <point x="151" y="387"/>
      <point x="151" y="424" type="curve" smooth="yes"/>
      <point x="151" y="461"/>
      <point x="186" y="488"/>
      <point x="233" y="488" type="curve" smooth="yes"/>
      <point x="445" y="488" type="line"/>
      <point x="445" y="626" type="line"/>
      <point x="937" y="626" type="line"/>
      <point x="937" y="477" type="line"/>
      <point x="889" y="468"/>
      <point x="850" y="442"/>
      <point x="825" y="401" type="curve"/>
      <point x="793" y="451"/>
      <point x="738" y="479"/>
      <point x="671" y="480" type="curve"/>
      <point x="590" y="479"/>
      <point x="521" y="428"/>
      <point x="496" y="363" type="curve"/>
      <point x="301" y="363" type="line" smooth="yes"/>
      <point x="281" y="363"/>
      <point x="266" y="360"/>
    </contour>
  </outline>
</glyph>
<glyph name="dv_HMYa" format="1">
  <advance width="1441"/>
  <outline>
    <contour>
      <point x="549" y="304" type="line"/>
      <point x="547" y="301"/>
      <point x="546" y="299"/>
      <point x="546" y="296" type="curve" smooth="yes"/>
      <point x="537" y="250"/>
      <point x="589" y="182"/>
      <point x="654" y="182" type="curve" smooth="yes"/>
      <point x="672" y="182"/>
      <point x="682" y="199"/>
      <point x="682" y="225" type="curve" smooth="yes"/>
      <point x="682" y="270" type="line"/>
      <point x="920" y="270" type="line"/>
      <point x="958" y="216"/>
      <point x="1027" y="178"/>
      <point x="1105" y="178" type="curve" smooth="yes"/>
      <point x="1167" y="178"/>
      <point x="1217" y="198"/>
      <point x="1252" y="231" type="curve"/>
      <point x="1252" y="0" type="line"/>
      <point x="1320" y="-16" type="line"/>
      <point x="1320" y="626" type="line"/>
      <point x="1453" y="626" type="line"/>
      <point x="1438" y="680" type="line"/>
      <point x="-11" y="680" type="line"/>
      <point x="3" y="626" type="line"/>
      <point x="378" y="626" type="line"/>
      <point x="378" y="545" type="line"/>
      <point x="231" y="545" type="line" smooth="yes"/>
      <point x="144" y="545"/>
      <point x="85" y="496"/>
      <point x="85" y="423" type="curve" smooth="yes"/>
      <point x="85" y="380"/>
      <point x="107" y="348"/>
      <point x="151" y="324" type="curve"/>
      <point x="97" y="288"/>
      <point x="64" y="236"/>
      <point x="64" y="173" type="curve" smooth="yes"/>
      <point x="64" y="54"/>
      <point x="157" y="-18"/>
      <point x="311" y="-18" type="curve" smooth="yes"/>
      <point x="364" y="-18"/>
      <point x="409" y="-13"/>
      <point x="452" y="1" type="curve"/>
      <point x="436" y="58" type="line"/>
      <point x="393" y="46"/>
      <point x="351" y="41"/>
      <point x="308" y="41" type="curve" smooth="yes"/>
      <point x="205" y="41"/>
      <point x="134" y="95"/>
      <point x="134" y="172" type="curve" smooth="yes"/>
      <point x="134" y="248"/>
      <point x="206" y="304"/>
      <point x="305" y="304" type="curve" smooth="yes"/>
    </contour>
    <contour>
      <point x="1252" y="626" type="line"/>
      <point x="1252" y="387" type="line" smooth="yes"/>
      <point x="1252" y="292"/>
      <point x="1198" y="236"/>
      <point x="1105" y="236" type="curve"/>
      <point x="1030" y="240"/>
      <point x="966" y="288"/>
      <point x="953" y="344" type="curve"/>
      <point x="1016" y="376"/>
      <point x="1046" y="446"/>
      <point x="1046" y="510" type="curve" smooth="yes"/>
      <point x="1046" y="565"/>
      <point x="1027" y="604"/>
      <point x="1001" y="626" type="curve"/>
    </contour>
    <contour>
      <point x="981" y="516" type="curve" smooth="yes"/>
      <point x="981" y="442"/>
      <point x="941" y="389"/>
      <point x="899" y="377" type="curve"/>
      <point x="888" y="363" type="line"/>
      <point x="888" y="349"/>
      <point x="890" y="335"/>
      <point x="894" y="322" type="curve"/>
      <point x="682" y="322" type="line"/>
      <point x="682" y="626" type="line"/>
      <point x="902" y="626" type="line"/>
      <point x="951" y="610"/>
      <point x="981" y="572"/>
    </contour>
    <contour>
      <point x="613" y="363" type="line"/>
      <point x="301" y="363" type="line" smooth="yes"/>
      <point x="281" y="363"/>
      <point x="266" y="360"/>
      <point x="233" y="360" type="curve" smooth="yes"/>
      <point x="186" y="360"/>
      <point x="151" y="387"/>
      <point x="151" y="424" type="curve" smooth="yes"/>
      <point x="151" y="461"/>
      <point x="186" y="488"/>
      <point x="233" y="488" type="curve" smooth="yes"/>
      <point x="445" y="488" type="line"/>
      <point x="445" y="626" type="line"/>
      <point x="613" y="626" type="line"/>
    </contour>
  </outline>
</glyph>
<glyph name="dv_HM.half" format="1">
  <advance width="630"/>
  <outline>
    <contour>
      <point x="764" y="330" type="line"/>
      <point x="764" y="381" type="line"/>
      <point x="429" y="381" type="line" smooth="yes"/>
      <point x="411" y="381"/>
      <point x="399" y="370"/>
      <point x="396" y="356" type="curve"/>
      <point x="396" y="355" type="line"/>
      <point x="364" y="361"/>
      <point x="332" y="363"/>
      <point x="301" y="363" type="curve" smooth="yes"/>
      <point x="281" y="363"/>
      <point x="266" y="360"/>
      <point x="233" y="360" type="curve" smooth="yes"/>
      <point x="186" y="360"/>
      <point x="151" y="387"/>
      <point x="151" y="424" type="curve" smooth="yes"/>
      <point x="151" y="461"/>
      <point x="186" y="488"/>
      <point x="233" y="488" type="curve" smooth="yes"/>
      <point x="445" y="488" type="line"/>
      <point x="445" y="626" type="line"/>
      <point x="642" y="626" type="line"/>
      <point x="628" y="680" type="line"/>
      <point x="-11" y="680" type="line"/>
      <point x="3" y="626" type="line"/>
      <point x="378" y="626" type="line"/>
      <point x="378" y="545" type="line"/>
      <point x="231" y="545" type="line" smooth="yes"/>
      <point x="144" y="545"/>
      <point x="85" y="496"/>
      <point x="85" y="423" type="curve" smooth="yes"/>
      <point x="85" y="380"/>
      <point x="107" y="348"/>
      <point x="151" y="324" type="curve"/>
      <point x="97" y="288"/>
      <point x="64" y="236"/>
      <point x="64" y="173" type="curve" smooth="yes"/>
      <point x="64" y="54"/>
      <point x="157" y="-18"/>
      <point x="311" y="-18" type="curve" smooth="yes"/>
      <point x="364" y="-18"/>
      <point x="409" y="-13"/>
      <point x="452" y="1" type="curve"/>
      <point x="436" y="58" type="line"/>
      <point x="393" y="46"/>
      <point x="351" y="41"/>
      <point x="308" y="41" type="curve" smooth="yes"/>
      <point x="205" y="41"/>
      <point x="134" y="95"/>
      <point x="134" y="172" type="curve" smooth="yes"/>
      <point x="134" y="248"/>
      <point x="206" y="304"/>
      <point x="305" y="304" type="curve" smooth="yes"/>
      <point x="342" y="304"/>
      <point x="380" y="298"/>
      <point x="417" y="287" type="curve"/>
      <point x="437" y="261"/>
      <point x="468" y="241"/>
      <point x="503" y="241" type="curve" smooth="yes"/>
      <point x="522" y="241"/>
      <point x="532" y="258"/>
      <point x="532" y="286" type="curve" smooth="yes"/>
      <point x="532" y="330" type="line"/>
    </contour>
  </outline>
</glyph>
<glyph name="dv_HMatraU" format="1">
  <advance width="536"/>
  <outline>
    <contour>
      <point x="452" y="339" type="line"/>
      <point x="401" y="358"/>
      <point x="350" y="363"/>
      <point x="301" y="363" type="curve" smooth="yes"/>
      <point x="281" y="363"/>
      <point x="266" y="360"/>
      <point x="233" y="360" type="curve" smooth="yes"/>
      <point x="186" y="360"/>
      <point x="151" y="387"/>
      <point x="151" y="424" type="curve" smooth="yes"/>
      <point x="151" y="461"/>
      <point x="186" y="488"/>
      <point x="233" y="488" type="curve" smooth="yes"/>
      <point x="445" y="488" type="line"/>
      <point x="445" y="626" type="line"/>
      <point x="548" y="626" type="line"/>
      <point x="533" y="680" type="line"/>
      <point x="-11" y="680" type="line"/>
      <point x="3" y="626" type="line"/>
      <point x="378" y="626" type="line"/>
      <point x="378" y="545" type="line"/>
      <point x="231" y="545" type="line" smooth="yes"/>
      <point x="144" y="545"/>
      <point x="85" y="496"/>
      <point x="85" y="423" type="curve" smooth="yes"/>
      <point x="85" y="380"/>
      <point x="107" y="348"/>
      <point x="151" y="324" type="curve"/>
      <point x="97" y="288"/>
      <point x="64" y="236"/>
      <point x="64" y="173" type="curve" smooth="yes"/>
      <point x="64" y="54"/>
      <point x="157" y="-18"/>
      <point x="310" y="-18" type="curve"/>
      <point x="353" y="-27"/>
      <point x="379" y="-60"/>
      <point x="379" y="-103" type="curve" smooth="yes"/>
      <point x="379" y="-153"/>
      <point x="346" y="-189"/>
      <point x="284" y="-189" type="curve" smooth="yes"/>
      <point x="202" y="-189"/>
      <point x="152" y="-137"/>
      <point x="80" y="-54" type="curve"/>
      <point x="41" y="-81" type="line"/>
      <point x="105" y="-181"/>
      <point x="189" y="-241"/>
      <point x="282" y="-241" type="curve" smooth="yes"/>
      <point x="366" y="-241"/>
      <point x="438" y="-189"/>
      <point x="438" y="-103" type="curve" smooth="yes"/>
      <point x="438" y="-65"/>
      <point x="424" y="-34"/>
      <point x="403" y="-11" type="curve"/>
      <point x="420" y="-8"/>
      <point x="436" y="-4"/>
      <point x="452" y="1" type="curve"/>
      <point x="436" y="58" type="line"/>
      <point x="393" y="46"/>
      <point x="351" y="41"/>
      <point x="308" y="41" type="curve" smooth="yes"/>
      <point x="205" y="41"/>
      <point x="134" y="95"/>
      <point x="134" y="172" type="curve" smooth="yes"/>
      <point x="134" y="248"/>
      <point x="206" y="304"/>
      <point x="305" y="304" type="curve" smooth="yes"/>
      <point x="349" y="304"/>
      <point x="393" y="296"/>
      <point x="436" y="281" type="curve"/>
    </contour>
  </outline>
</glyph>
<glyph name="dv_HMatraUu" format="1">
  <advance width="536"/>
  <outline>
    <contour>
      <point x="452" y="339" type="line"/>
      <point x="401" y="358"/>
      <point x="350" y="363"/>
      <point x="301" y="363" type="curve" smooth="yes"/>
      <point x="281" y="363"/>
      <point x="266" y="360"/>
      <point x="233" y="360" type="curve" smooth="yes"/>
      <point x="186" y="360"/>
      <point x="151" y="387"/>
      <point x="151" y="424" type="curve" smooth="yes"/>
      <point x="151" y="461"/>
      <point x="186" y="488"/>
      <point x="233" y="488" type="curve" smooth="yes"/>
      <point x="445" y="488" type="line"/>
      <point x="445" y="626" type="line"/>
      <point x="548" y="626" type="line"/>
      <point x="533" y="680" type="line"/>
      <point x="-11" y="680" type="line"/>
      <point x="3" y="626" type="line"/>
      <point x="378" y="626" type="line"/>
      <point x="378" y="545" type="line"/>
      <point x="231" y="545" type="line" smooth="yes"/>
      <point x="144" y="545"/>
      <point x="85" y="496"/>
      <point x="85" y="423" type="curve" smooth="yes"/>
      <point x="85" y="380"/>
      <point x="107" y="348"/>
      <point x="151" y="324" type="curve"/>
      <point x="97" y="288"/>
      <point x="64" y="236"/>
      <point x="64" y="173" type="curve" smooth="yes"/>
      <point x="64" y="97"/>
      <point x="101" y="40"/>
      <point x="168" y="9" type="curve"/>
      <point x="131" y="-14"/>
      <point x="107" y="-53"/>
      <point x="107" y="-104" type="curve" smooth="yes"/>
      <point x="107" y="-192"/>
      <point x="179" y="-243"/>
      <point x="250" y="-243" type="curve" smooth="yes"/>
      <point x="309" y="-243" type="line"/>
      <point x="309" y="-191" type="line"/>
      <point x="261" y="-191" type="line" smooth="yes"/>
      <point x="202" y="-191"/>
      <point x="166" y="-155"/>
      <point x="166" y="-104" type="curve" smooth="yes"/>
      <point x="166" y="-54"/>
      <point x="199" y="-17"/>
      <point x="261" y="-17" type="curve" smooth="yes"/>
      <point x="342" y="-17"/>
      <point x="392" y="-70"/>
      <point x="463" y="-154" type="curve"/>
      <point x="503" y="-125" type="line"/>
      <point x="473" y="-78"/>
      <point x="434" y="-40"/>
      <point x="394" y="-12" type="curve"/>
      <point x="414" y="-9"/>
      <point x="433" y="-5"/>
      <point x="452" y="1" type="curve"/>
      <point x="436" y="58" type="line"/>
      <point x="393" y="46"/>
      <point x="351" y="41"/>
      <point x="308" y="41" type="curve" smooth="yes"/>
      <point x="205" y="41"/>
      <point x="134" y="95"/>
      <point x="134" y="172" type="curve" smooth="yes"/>
      <point x="134" y="248"/>
      <point x="206" y="304"/>
      <point x="305" y="304" type="curve" smooth="yes"/>
      <point x="349" y="304"/>
      <point x="393" y="296"/>
      <point x="436" y="281" type="curve"/>
    </contour>
  </outline>
</glyph>
<glyph name="dv_HMatraVocalicR" format="1">
  <advance width="536"/>
  <outline>
    <contour>
      <point x="452" y="339" type="line"/>
      <point x="401" y="358"/>
      <point x="350" y="363"/>
      <point x="301" y="363" type="curve" smooth="yes"/>
      <point x="281" y="363"/>
      <point x="266" y="360"/>
      <point x="233" y="360" type="curve" smooth="yes"/>
      <point x="186" y="360"/>
      <point x="151" y="387"/>
      <point x="151" y="424" type="curve" smooth="yes"/>
      <point x="151" y="461"/>
      <point x="186" y="488"/>
      <point x="233" y="488" type="curve" smooth="yes"/>
      <point x="445" y="488" type="line"/>
      <point x="445" y="626" type="line"/>
      <point x="548" y="626" type="line"/>
      <point x="533" y="680" type="line"/>
      <point x="-11" y="680" type="line"/>
      <point x="3" y="626" type="line"/>
      <point x="378" y="626" type="line"/>
      <point x="378" y="545" type="line"/>
      <point x="231" y="545" type="line" smooth="yes"/>
      <point x="144" y="545"/>
      <point x="85" y="496"/>
      <point x="85" y="423" type="curve" smooth="yes"/>
      <point x="85" y="380"/>
      <point x="107" y="348"/>
      <point x="151" y="324" type="curve"/>
      <point x="97" y="288"/>
      <point x="64" y="236"/>
      <point x="64" y="173" type="curve" smooth="yes"/>
      <point x="64" y="81"/>
      <point x="119" y="17"/>
      <point x="215" y="-7" type="curve"/>
      <point x="191" y="-30"/>
      <point x="176" y="-64"/>
      <point x="176" y="-105" type="curve" smooth="yes"/>
      <point x="176" y="-191"/>
      <point x="245" y="-244"/>
      <point x="319" y="-244" type="curve" smooth="yes"/>
      <point x="347" y="-244"/>
      <point x="373" y="-239"/>
      <point x="396" y="-231" type="curve"/>
      <point x="386" y="-181" type="line"/>
      <point x="366" y="-188"/>
      <point x="352" y="-192"/>
      <point x="330" y="-192" type="curve" smooth="yes"/>
      <point x="270" y="-192"/>
      <point x="235" y="-155"/>
      <point x="235" y="-105" type="curve" smooth="yes"/>
      <point x="235" y="-59"/>
      <point x="264" y="-24"/>
      <point x="313" y="-18" type="curve"/>
      <point x="365" y="-18"/>
      <point x="409" y="-13"/>
      <point x="452" y="1" type="curve"/>
      <point x="436" y="58" type="line"/>
      <point x="393" y="46"/>
      <point x="351" y="41"/>
      <point x="308" y="41" type="curve" smooth="yes"/>
      <point x="205" y="41"/>
      <point x="134" y="95"/>
      <point x="134" y="172" type="curve" smooth="yes"/>
      <point x="134" y="248"/>
      <point x="206" y="304"/>
      <point x="305" y="304" type="curve" smooth="yes"/>
      <point x="349" y="304"/>
      <point x="393" y="296"/>
      <point x="436" y="281" type="curve"/>
    </contour>
  </outline>
</glyph>
<glyph name="dv_HNa" format="1">
  <advance width="784"/>
  <outline>
    <contour>
      <point x="593" y="0" type="line"/>
      <point x="661" y="-16" type="line"/>
      <point x="661" y="626" type="line"/>
      <point x="795" y="626" type="line"/>
      <point x="779" y="680" type="line"/>
      <point x="-11" y="680" type="line"/>
      <point x="3" y="626" type="line"/>
      <point x="378" y="626" type="line"/>
      <point x="378" y="545" type="line"/>
      <point x="231" y="545" type="line" smooth="yes"/>
      <point x="144" y="545"/>
      <point x="85" y="496"/>
      <point x="85" y="423" type="curve" smooth="yes"/>
      <point x="85" y="380"/>
      <point x="107" y="348"/>
      <point x="151" y="324" type="curve"/>
      <point x="97" y="288"/>
      <point x="64" y="236"/>
      <point x="64" y="173" type="curve" smooth="yes"/>
      <point x="64" y="54"/>
      <point x="157" y="-18"/>
      <point x="311" y="-18" type="curve" smooth="yes"/>
      <point x="321" y="-18"/>
      <point x="331" y="-18"/>
      <point x="341" y="-17" type="curve"/>
      <point x="341" y="-28"/>
      <point x="345" y="-39"/>
      <point x="351" y="-46" type="curve" smooth="yes"/>
      <point x="375" y="-71"/>
      <point x="427" y="-76"/>
      <point x="467" y="-57" type="curve" smooth="yes"/>
      <point x="483" y="-50"/>
      <point x="497" y="-40"/>
      <point x="508" y="-25" type="curve" smooth="yes"/>
      <point x="513" y="-18"/>
      <point x="513" y="-8"/>
      <point x="510" y="1" type="curve"/>
      <point x="506" y="8"/>
      <point x="498" y="17"/>
      <point x="488" y="24" type="curve" smooth="yes"/>
      <point x="452" y="51" type="line"/>
      <point x="593" y="240" type="line"/>
    </contour>
    <contour>
      <point x="308" y="41" type="curve" smooth="yes"/>
      <point x="205" y="41"/>
      <point x="134" y="95"/>
      <point x="134" y="172" type="curve" smooth="yes"/>
      <point x="134" y="248"/>
      <point x="206" y="304"/>
      <point x="305" y="304" type="curve" smooth="yes"/>
      <point x="570" y="304" type="line"/>
      <point x="379" y="46" type="line"/>
      <point x="355" y="42"/>
      <point x="332" y="41"/>
    </contour>
    <contour>
      <point x="233" y="360" type="curve" smooth="yes"/>
      <point x="186" y="360"/>
      <point x="151" y="387"/>
      <point x="151" y="424" type="curve" smooth="yes"/>
      <point x="151" y="461"/>
      <point x="186" y="488"/>
      <point x="233" y="488" type="curve" smooth="yes"/>
      <point x="445" y="488" type="line"/>
      <point x="445" y="626" type="line"/>
      <point x="593" y="626" type="line"/>
      <point x="593" y="363" type="line"/>
      <point x="301" y="363" type="line" smooth="yes"/>
      <point x="281" y="363"/>
      <point x="266" y="360"/>
    </contour>
  </outline>
</glyph>
<glyph name="dv_HRa" format="1">
  <advance width="536"/>
  <outline>
    <contour>
      <point x="452" y="339" type="line"/>
      <point x="401" y="358"/>
      <point x="350" y="363"/>
      <point x="301" y="363" type="curve" smooth="yes"/>
      <point x="281" y="363"/>
      <point x="266" y="360"/>
      <point x="233" y="360" type="curve" smooth="yes"/>
      <point x="186" y="360"/>
      <point x="151" y="387"/>
      <point x="151" y="424" type="curve" smooth="yes"/>
      <point x="151" y="461"/>
      <point x="186" y="488"/>
      <point x="233" y="488" type="curve" smooth="yes"/>
      <point x="445" y="488" type="line"/>
      <point x="445" y="626" type="line"/>
      <point x="548" y="626" type="line"/>
      <point x="533" y="680" type="line"/>
      <point x="-11" y="680" type="line"/>
      <point x="3" y="626" type="line"/>
      <point x="378" y="626" type="line"/>
      <point x="378" y="545" type="line"/>
      <point x="231" y="545" type="line" smooth="yes"/>
      <point x="144" y="545"/>
      <point x="85" y="496"/>
      <point x="85" y="423" type="curve" smooth="yes"/>
      <point x="85" y="380"/>
      <point x="107" y="348"/>
      <point x="151" y="324" type="curve"/>
      <point x="97" y="288"/>
      <point x="64" y="236"/>
      <point x="64" y="173" type="curve" smooth="yes"/>
      <point x="64" y="54"/>
      <point x="157" y="-18"/>
      <point x="311" y="-18" type="curve" smooth="yes"/>
      <point x="364" y="-18"/>
      <point x="409" y="-13"/>
      <point x="452" y="1" type="curve"/>
      <point x="436" y="58" type="line"/>
      <point x="393" y="46"/>
      <point x="351" y="41"/>
      <point x="308" y="41" type="curve" smooth="yes"/>
      <point x="205" y="41"/>
      <point x="134" y="95"/>
      <point x="134" y="172" type="curve" smooth="yes"/>
      <point x="134" y="248"/>
      <point x="206" y="304"/>
      <point x="305" y="304" type="curve" smooth="yes"/>
      <point x="312" y="304" type="line"/>
      <point x="243" y="167" type="line"/>
      <point x="311" y="149" type="line"/>
      <point x="376" y="297" type="line"/>
      <point x="396" y="293"/>
      <point x="416" y="288"/>
      <point x="436" y="281" type="curve"/>
    </contour>
  </outline>
</glyph>
<glyph name="dv_HYa" format="1">
  <advance width="1060"/>
  <outline>
    <contour>
      <point x="452" y="339" type="line"/>
      <point x="401" y="358"/>
      <point x="350" y="363"/>
      <point x="301" y="363" type="curve" smooth="yes"/>
      <point x="281" y="363"/>
      <point x="266" y="360"/>
      <point x="233" y="360" type="curve" smooth="yes"/>
      <point x="186" y="360"/>
      <point x="151" y="387"/>
      <point x="151" y="424" type="curve" smooth="yes"/>
      <point x="151" y="461"/>
      <point x="186" y="488"/>
      <point x="233" y="488" type="curve" smooth="yes"/>
      <point x="537" y="488" type="line" smooth="yes"/>
      <point x="589" y="488"/>
      <point x="601" y="467"/>
      <point x="601" y="448" type="curve" smooth="yes"/>
      <point x="601" y="417"/>
      <point x="561" y="395"/>
      <point x="519" y="384" type="curve"/>
      <point x="507" y="369" type="line"/>
      <point x="507" y="273"/>
      <point x="606" y="184"/>
      <point x="724" y="184" type="curve" smooth="yes"/>
      <point x="787" y="184"/>
      <point x="836" y="204"/>
      <point x="871" y="237" type="curve"/>
      <point x="871" y="0" type="line"/>
      <point x="939" y="-16" type="line"/>
      <point x="939" y="626" type="line"/>
      <point x="1072" y="626" type="line"/>
      <point x="1058" y="680" type="line"/>
      <point x="-11" y="680" type="line"/>
      <point x="3" y="626" type="line"/>
      <point x="378" y="626" type="line"/>
      <point x="378" y="545" type="line"/>
      <point x="231" y="545" type="line" smooth="yes"/>
      <point x="144" y="545"/>
      <point x="85" y="496"/>
      <point x="85" y="423" type="curve" smooth="yes"/>
      <point x="85" y="380"/>
      <point x="107" y="348"/>
      <point x="151" y="324" type="curve"/>
      <point x="97" y="288"/>
      <point x="64" y="236"/>
      <point x="64" y="173" type="curve" smooth="yes"/>
      <point x="64" y="54"/>
      <point x="157" y="-18"/>
      <point x="311" y="-18" type="curve" smooth="yes"/>
      <point x="364" y="-18"/>
      <point x="409" y="-13"/>
      <point x="452" y="1" type="curve"/>
      <point x="436" y="58" type="line"/>
      <point x="393" y="46"/>
      <point x="351" y="41"/>
      <point x="308" y="41" type="curve" smooth="yes"/>
      <point x="205" y="41"/>
      <point x="134" y="95"/>
      <point x="134" y="172" type="curve" smooth="yes"/>
      <point x="134" y="248"/>
      <point x="206" y="304"/>
      <point x="305" y="304" type="curve" smooth="yes"/>
      <point x="349" y="304"/>
      <point x="393" y="296"/>
      <point x="436" y="281" type="curve"/>
    </contour>
    <contour>
      <point x="871" y="626" type="line"/>
      <point x="871" y="393" type="line" smooth="yes"/>
      <point x="871" y="298"/>
      <point x="819" y="241"/>
      <point x="724" y="241" type="curve"/>
      <point x="650" y="246"/>
      <point x="587" y="292"/>
      <point x="573" y="350" type="curve"/>
      <point x="636" y="382"/>
      <point x="659" y="403"/>
      <point x="659" y="456" type="curve" smooth="yes"/>
      <point x="659" y="498"/>
      <point x="621" y="542"/>
      <point x="549" y="542" type="curve" smooth="yes"/>
      <point x="445" y="542" type="line"/>
      <point x="445" y="626" type="line"/>
    </contour>
  </outline>
</glyph>
<glyph name="dv_H.half" format="1">
  <advance width="536"/>
  <outline>
    <contour>
      <point x="615" y="363" type="line"/>
      <point x="301" y="363" type="line"/>
      <point x="281" y="363"/>
      <point x="266" y="360"/>
      <point x="233" y="360" type="curve" smooth="yes"/>
      <point x="186" y="360"/>
      <point x="151" y="387"/>
      <point x="151" y="424" type="curve" smooth="yes"/>
      <point x="151" y="461"/>
      <point x="186" y="488"/>
      <point x="233" y="488" type="curve" smooth="yes"/>
      <point x="445" y="488" type="line"/>
      <point x="445" y="626" type="line"/>
      <point x="548" y="626" type="line"/>
      <point x="533" y="680" type="line"/>
      <point x="-11" y="680" type="line"/>
      <point x="3" y="626" type="line"/>
      <point x="378" y="626" type="line"/>
      <point x="378" y="545" type="line"/>
      <point x="231" y="545" type="line" smooth="yes"/>
      <point x="144" y="545"/>
      <point x="85" y="496"/>
      <point x="85" y="423" type="curve" smooth="yes"/>
      <point x="85" y="380"/>
      <point x="107" y="348"/>
      <point x="151" y="324" type="curve"/>
      <point x="97" y="288"/>
      <point x="64" y="236"/>
      <point x="64" y="173" type="curve" smooth="yes"/>
      <point x="64" y="54"/>
      <point x="157" y="-18"/>
      <point x="311" y="-18" type="curve" smooth="yes"/>
      <point x="364" y="-18"/>
      <point x="409" y="-13"/>
      <point x="452" y="1" type="curve"/>
      <point x="436" y="58" type="line"/>
      <point x="393" y="46"/>
      <point x="351" y="41"/>
      <point x="308" y="41" type="curve" smooth="yes"/>
      <point x="205" y="41"/>
      <point x="134" y="95"/>
      <point x="134" y="172" type="curve" smooth="yes"/>
      <point x="134" y="248"/>
      <point x="206" y="304"/>
      <point x="305" y="304" type="curve"/>
      <point x="615" y="304" type="line"/>
    </contour>
  </outline>
</glyph>
<glyph name="dv_JhHa" format="1">
  <advance width="1062"/>
  <outline>
    <contour>
      <point x="977" y="339" type="line"/>
      <point x="926" y="358"/>
      <point x="875" y="363"/>
      <point x="826" y="363" type="curve" smooth="yes"/>
      <point x="806" y="363"/>
      <point x="791" y="360"/>
      <point x="758" y="360" type="curve" smooth="yes"/>
      <point x="711" y="360"/>
      <point x="676" y="387"/>
      <point x="676" y="424" type="curve" smooth="yes"/>
      <point x="676" y="461"/>
      <point x="711" y="488"/>
      <point x="758" y="488" type="curve" smooth="yes"/>
      <point x="970" y="488" type="line"/>
      <point x="970" y="626" type="line"/>
      <point x="1073" y="626" type="line"/>
      <point x="1058" y="680" type="line"/>
      <point x="-11" y="680" type="line"/>
      <point x="3" y="626" type="line"/>
      <point x="364" y="626" type="line"/>
      <point x="364" y="515" type="line"/>
      <point x="205" y="515" type="line" smooth="yes"/>
      <point x="119" y="515"/>
      <point x="52" y="465"/>
      <point x="52" y="384" type="curve" smooth="yes"/>
      <point x="52" y="310"/>
      <point x="129" y="253"/>
      <point x="207" y="253" type="curve" smooth="yes"/>
      <point x="302" y="253" type="line" smooth="yes"/>
      <point x="371" y="253"/>
      <point x="419" y="208"/>
      <point x="419" y="144" type="curve"/>
      <point x="419" y="143" type="line"/>
      <point x="419" y="77"/>
      <point x="356" y="38"/>
      <point x="273" y="37" type="curve"/>
      <point x="243" y="38"/>
      <point x="212" y="42"/>
      <point x="183" y="50" type="curve"/>
      <point x="169" y="93"/>
      <point x="131" y="128"/>
      <point x="85" y="128" type="curve" smooth="yes"/>
      <point x="62" y="128"/>
      <point x="46" y="115"/>
      <point x="46" y="93" type="curve" smooth="yes"/>
      <point x="46" y="46"/>
      <point x="94" y="8"/>
      <point x="132" y="-8" type="curve"/>
      <point x="260" y="-172" type="line"/>
      <point x="304" y="-140" type="line"/>
      <point x="203" y="-13" type="line"/>
      <point x="226" y="-17"/>
      <point x="250" y="-19"/>
      <point x="273" y="-19" type="curve" smooth="yes"/>
      <point x="411" y="-19"/>
      <point x="488" y="55"/>
      <point x="488" y="143" type="curve" smooth="yes"/>
      <point x="488" y="165"/>
      <point x="485" y="185"/>
      <point x="479" y="203" type="curve"/>
      <point x="591" y="203" type="line"/>
      <point x="590" y="193"/>
      <point x="589" y="183"/>
      <point x="589" y="173" type="curve" smooth="yes"/>
      <point x="589" y="54"/>
      <point x="682" y="-18"/>
      <point x="836" y="-18" type="curve" smooth="yes"/>
      <point x="889" y="-18"/>
      <point x="934" y="-13"/>
      <point x="977" y="1" type="curve"/>
      <point x="961" y="58" type="line"/>
      <point x="918" y="46"/>
      <point x="876" y="41"/>
      <point x="833" y="41" type="curve" smooth="yes"/>
      <point x="730" y="41"/>
      <point x="659" y="95"/>
      <point x="659" y="172" type="curve" smooth="yes"/>
      <point x="659" y="248"/>
      <point x="731" y="304"/>
      <point x="830" y="304" type="curve" smooth="yes"/>
      <point x="874" y="304"/>
      <point x="918" y="296"/>
      <point x="961" y="281" type="curve"/>
    </contour>
    <contour>
      <point x="447" y="257" type="line"/>
      <point x="414" y="291"/>
      <point x="361" y="309"/>
      <point x="293" y="309" type="curve" smooth="yes"/>
      <point x="207" y="309" type="line" smooth="yes"/>
      <point x="155" y="309"/>
      <point x="120" y="340"/>
      <point x="120" y="384" type="curve" smooth="yes"/>
      <point x="120" y="426"/>
      <point x="153" y="458"/>
      <point x="205" y="458" type="curve" smooth="yes"/>
      <point x="433" y="458" type="line"/>
      <point x="433" y="626" type="line"/>
      <point x="903" y="626" type="line"/>
      <point x="903" y="545" type="line"/>
      <point x="756" y="545" type="line" smooth="yes"/>
      <point x="669" y="545"/>
      <point x="610" y="496"/>
      <point x="610" y="423" type="curve" smooth="yes"/>
      <point x="610" y="380"/>
      <point x="632" y="348"/>
      <point x="676" y="324" type="curve"/>
      <point x="648" y="305"/>
      <point x="626" y="283"/>
      <point x="611" y="257" type="curve"/>
    </contour>
  </outline>
</glyph>
<glyph name="dv_KHa" format="1">
  <advance width="1159"/>
  <outline>
    <contour>
      <point x="1075" y="339" type="line"/>
      <point x="1024" y="358"/>
      <point x="973" y="363"/>
      <point x="924" y="363" type="curve" smooth="yes"/>
      <point x="904" y="363"/>
      <point x="889" y="360"/>
      <point x="856" y="360" type="curve" smooth="yes"/>
      <point x="809" y="360"/>
      <point x="774" y="387"/>
      <point x="774" y="424" type="curve" smooth="yes"/>
      <point x="774" y="461"/>
      <point x="809" y="488"/>
      <point x="856" y="488" type="curve" smooth="yes"/>
      <point x="1068" y="488" type="line"/>
      <point x="1068" y="626" type="line"/>
      <point x="1171" y="626" type="line"/>
      <point x="1156" y="680" type="line"/>
      <point x="-11" y="680" type="line"/>
      <point x="3" y="626" type="line"/>
      <point x="423" y="626" type="line"/>
      <point x="423" y="448" type="line"/>
      <point x="390" y="479"/>
      <point x="343" y="510"/>
      <point x="276" y="510" type="curve" smooth="yes"/>
      <point x="142" y="510"/>
      <point x="55" y="421"/>
      <point x="55" y="305" type="curve" smooth="yes"/>
      <point x="55" y="179"/>
      <point x="154" y="102"/>
      <point x="276" y="102" type="curve" smooth="yes"/>
      <point x="343" y="102"/>
      <point x="390" y="133"/>
      <point x="423" y="163" type="curve"/>
      <point x="423" y="0" type="line"/>
      <point x="491" y="-16" type="line"/>
      <point x="491" y="352" type="line"/>
      <point x="515" y="388"/>
      <point x="561" y="453"/>
      <point x="652" y="453" type="curve" smooth="yes"/>
      <point x="711" y="453" type="line"/>
      <point x="709" y="443"/>
      <point x="708" y="433"/>
      <point x="708" y="423" type="curve" smooth="yes"/>
      <point x="708" y="380"/>
      <point x="730" y="348"/>
      <point x="774" y="324" type="curve"/>
      <point x="720" y="288"/>
      <point x="687" y="236"/>
      <point x="687" y="173" type="curve" smooth="yes"/>
      <point x="687" y="54"/>
      <point x="780" y="-18"/>
      <point x="934" y="-18" type="curve" smooth="yes"/>
      <point x="987" y="-18"/>
      <point x="1032" y="-13"/>
      <point x="1075" y="1" type="curve"/>
      <point x="1059" y="58" type="line"/>
      <point x="1016" y="46"/>
      <point x="974" y="41"/>
      <point x="931" y="41" type="curve" smooth="yes"/>
      <point x="828" y="41"/>
      <point x="757" y="95"/>
      <point x="757" y="172" type="curve" smooth="yes"/>
      <point x="757" y="248"/>
      <point x="829" y="304"/>
      <point x="928" y="304" type="curve" smooth="yes"/>
      <point x="972" y="304"/>
      <point x="1016" y="296"/>
      <point x="1059" y="281" type="curve"/>
    </contour>
    <contour>
      <point x="131" y="306" type="curve" smooth="yes"/>
      <point x="132" y="393"/>
      <point x="196" y="453"/>
      <point x="273" y="453" type="curve" smooth="yes"/>
      <point x="356" y="453"/>
      <point x="396" y="398"/>
      <point x="423" y="360" type="curve"/>
      <point x="423" y="251" type="line"/>
      <point x="396" y="213"/>
      <point x="356" y="158"/>
      <point x="273" y="158" type="curve" smooth="yes"/>
      <point x="190" y="158"/>
      <point x="131" y="219"/>
    </contour>
    <contour>
      <point x="491" y="437" type="curve"/>
      <point x="491" y="626" type="line"/>
      <point x="1001" y="626" type="line"/>
      <point x="1001" y="545" type="line"/>
      <point x="854" y="545" type="line" smooth="yes"/>
      <point x="807" y="545"/>
      <point x="768" y="530"/>
      <point x="742" y="506" type="curve"/>
      <point x="650" y="506" type="line" smooth="yes"/>
      <point x="566" y="506"/>
      <point x="523" y="470"/>
    </contour>
  </outline>
</glyph>
<glyph name="dv_LHYa" format="1">
  <advance width="1623"/>
  <outline>
    <contour>
      <point x="1005" y="339" type="line"/>
      <point x="954" y="358"/>
      <point x="903" y="363"/>
      <point x="854" y="363" type="curve" smooth="yes"/>
      <point x="834" y="363"/>
      <point x="819" y="360"/>
      <point x="786" y="360" type="curve" smooth="yes"/>
      <point x="739" y="360"/>
      <point x="704" y="387"/>
      <point x="704" y="424" type="curve" smooth="yes"/>
      <point x="704" y="461"/>
      <point x="739" y="488"/>
      <point x="786" y="488" type="curve" smooth="yes"/>
      <point x="1100" y="488" type="line" smooth="yes"/>
      <point x="1152" y="488"/>
      <point x="1164" y="467"/>
      <point x="1164" y="448" type="curve" smooth="yes"/>
      <point x="1164" y="417"/>
      <point x="1124" y="395"/>
      <point x="1082" y="384" type="curve"/>
      <point x="1070" y="369" type="line"/>
      <point x="1070" y="273"/>
      <point x="1170" y="184"/>
      <point x="1287" y="184" type="curve" smooth="yes"/>
      <point x="1350" y="184"/>
      <point x="1399" y="204"/>
      <point x="1434" y="237" type="curve"/>
      <point x="1434" y="0" type="line"/>
      <point x="1502" y="-16" type="line"/>
      <point x="1502" y="626" type="line"/>
      <point x="1635" y="626" type="line"/>
      <point x="1621" y="680" type="line"/>
      <point x="-11" y="680" type="line"/>
      <point x="3" y="626" type="line"/>
      <point x="931" y="626" type="line"/>
      <point x="931" y="545" type="line"/>
      <point x="784" y="545" type="line" smooth="yes"/>
      <point x="715" y="545"/>
      <point x="664" y="514"/>
      <point x="645" y="465" type="curve"/>
      <point x="623" y="475"/>
      <point x="599" y="480"/>
      <point x="571" y="480" type="curve" smooth="yes"/>
      <point x="508" y="480"/>
      <point x="456" y="452"/>
      <point x="425" y="401" type="curve"/>
      <point x="393" y="451"/>
      <point x="338" y="479"/>
      <point x="271" y="480" type="curve"/>
      <point x="170" y="479"/>
      <point x="87" y="400"/>
      <point x="87" y="313" type="curve" smooth="yes"/>
      <point x="87" y="197"/>
      <point x="146" y="100"/>
      <point x="206" y="-18" type="curve"/>
      <point x="262" y="1" type="line"/>
      <point x="197" y="134"/>
      <point x="155" y="200"/>
      <point x="155" y="306" type="curve" smooth="yes"/>
      <point x="155" y="365"/>
      <point x="206" y="420"/>
      <point x="271" y="420" type="curve" smooth="yes"/>
      <point x="355" y="419"/>
      <point x="392" y="360"/>
      <point x="392" y="271" type="curve" smooth="yes"/>
      <point x="393" y="176" type="line"/>
      <point x="461" y="156" type="line"/>
      <point x="461" y="271" type="line" smooth="yes"/>
      <point x="461" y="360"/>
      <point x="498" y="422"/>
      <point x="570" y="422" type="curve" smooth="yes"/>
      <point x="599" y="422"/>
      <point x="623" y="413"/>
      <point x="641" y="396" type="curve"/>
      <point x="648" y="366"/>
      <point x="669" y="343"/>
      <point x="704" y="324" type="curve"/>
      <point x="650" y="288"/>
      <point x="617" y="236"/>
      <point x="617" y="173" type="curve" smooth="yes"/>
      <point x="617" y="54"/>
      <point x="710" y="-18"/>
      <point x="864" y="-18" type="curve" smooth="yes"/>
      <point x="917" y="-18"/>
      <point x="962" y="-13"/>
      <point x="1005" y="1" type="curve"/>
      <point x="989" y="58" type="line"/>
      <point x="946" y="46"/>
      <point x="904" y="41"/>
      <point x="861" y="41" type="curve" smooth="yes"/>
      <point x="758" y="41"/>
      <point x="687" y="95"/>
      <point x="687" y="172" type="curve" smooth="yes"/>
      <point x="687" y="248"/>
      <point x="759" y="304"/>
      <point x="858" y="304" type="curve" smooth="yes"/>
      <point x="902" y="304"/>
      <point x="946" y="296"/>
      <point x="989" y="281" type="curve"/>
    </contour>
    <contour>
      <point x="1434" y="626" type="line"/>
      <point x="1434" y="393" type="line" smooth="yes"/>
      <point x="1434" y="298"/>
      <point x="1382" y="241"/>
      <point x="1287" y="241" type="curve"/>
      <point x="1213" y="246"/>
      <point x="1148" y="292"/>
      <point x="1136" y="350" type="curve"/>
      <point x="1199" y="382"/>
      <point x="1223" y="403"/>
      <point x="1223" y="456" type="curve" smooth="yes"/>
      <point x="1223" y="498"/>
      <point x="1182" y="542"/>
      <point x="1112" y="542" type="curve" smooth="yes"/>
      <point x="998" y="542" type="line"/>
      <point x="998" y="626" type="line"/>
    </contour>
  </outline>
</glyph>
<glyph name="dv_LHa" format="1">
  <advance width="1087"/>
  <outline>
    <contour>
      <point x="1003" y="339" type="line"/>
      <point x="952" y="358"/>
      <point x="901" y="363"/>
      <point x="852" y="363" type="curve" smooth="yes"/>
      <point x="832" y="363"/>
      <point x="817" y="360"/>
      <point x="784" y="360" type="curve" smooth="yes"/>
      <point x="737" y="360"/>
      <point x="702" y="387"/>
      <point x="702" y="424" type="curve" smooth="yes"/>
      <point x="702" y="461"/>
      <point x="737" y="488"/>
      <point x="784" y="488" type="curve" smooth="yes"/>
      <point x="996" y="488" type="line"/>
      <point x="996" y="626" type="line"/>
      <point x="1099" y="626" type="line"/>
      <point x="1084" y="680" type="line"/>
      <point x="-11" y="680" type="line"/>
      <point x="3" y="626" type="line"/>
      <point x="929" y="626" type="line"/>
      <point x="929" y="545" type="line"/>
      <point x="782" y="545" type="line" smooth="yes"/>
      <point x="713" y="545"/>
      <point x="662" y="514"/>
      <point x="643" y="465" type="curve"/>
      <point x="622" y="475"/>
      <point x="598" y="480"/>
      <point x="571" y="480" type="curve" smooth="yes"/>
      <point x="508" y="480"/>
      <point x="456" y="452"/>
      <point x="425" y="401" type="curve"/>
      <point x="393" y="451"/>
      <point x="338" y="479"/>
      <point x="271" y="480" type="curve"/>
      <point x="170" y="479"/>
      <point x="87" y="400"/>
      <point x="87" y="313" type="curve" smooth="yes"/>
      <point x="87" y="197"/>
      <point x="146" y="100"/>
      <point x="206" y="-18" type="curve"/>
      <point x="262" y="1" type="line"/>
      <point x="197" y="134"/>
      <point x="155" y="200"/>
      <point x="155" y="306" type="curve" smooth="yes"/>
      <point x="155" y="365"/>
      <point x="206" y="420"/>
      <point x="271" y="420" type="curve" smooth="yes"/>
      <point x="355" y="419"/>
      <point x="392" y="360"/>
      <point x="392" y="271" type="curve" smooth="yes"/>
      <point x="393" y="176" type="line"/>
      <point x="461" y="156" type="line"/>
      <point x="461" y="271" type="line" smooth="yes"/>
      <point x="461" y="360"/>
      <point x="498" y="422"/>
      <point x="570" y="422" type="curve" smooth="yes"/>
      <point x="598" y="422"/>
      <point x="621" y="413"/>
      <point x="638" y="398" type="curve"/>
      <point x="645" y="367"/>
      <point x="667" y="343"/>
      <point x="702" y="324" type="curve"/>
      <point x="648" y="288"/>
      <point x="615" y="236"/>
      <point x="615" y="173" type="curve" smooth="yes"/>
      <point x="615" y="54"/>
      <point x="708" y="-18"/>
      <point x="862" y="-18" type="curve" smooth="yes"/>
      <point x="915" y="-18"/>
      <point x="960" y="-13"/>
      <point x="1003" y="1" type="curve"/>
      <point x="987" y="58" type="line"/>
      <point x="944" y="46"/>
      <point x="902" y="41"/>
      <point x="859" y="41" type="curve" smooth="yes"/>
      <point x="756" y="41"/>
      <point x="685" y="95"/>
      <point x="685" y="172" type="curve" smooth="yes"/>
      <point x="685" y="248"/>
      <point x="757" y="304"/>
      <point x="856" y="304" type="curve" smooth="yes"/>
      <point x="900" y="304"/>
      <point x="944" y="296"/>
      <point x="987" y="281" type="curve"/>
    </contour>
  </outline>
</glyph>
<glyph name="dv_MHa" format="1">
  <advance width="867"/>
  <outline>
    <contour>
      <point x="783" y="339" type="line"/>
      <point x="732" y="358"/>
      <point x="681" y="363"/>
      <point x="632" y="363" type="curve" smooth="yes"/>
      <point x="612" y="363"/>
      <point x="597" y="360"/>
      <point x="564" y="360" type="curve" smooth="yes"/>
      <point x="517" y="360"/>
      <point x="482" y="387"/>
      <point x="482" y="424" type="curve" smooth="yes"/>
      <point x="482" y="461"/>
      <point x="517" y="488"/>
      <point x="564" y="488" type="curve" smooth="yes"/>
      <point x="776" y="488" type="line"/>
      <point x="776" y="626" type="line"/>
      <point x="879" y="626" type="line"/>
      <point x="864" y="680" type="line"/>
      <point x="-11" y="680" type="line"/>
      <point x="3" y="626" type="line"/>
      <point x="123" y="626" type="line"/>
      <point x="123" y="322" type="line"/>
      <point x="88" y="322" type="line" smooth="yes"/>
      <point x="72" y="322"/>
      <point x="59" y="310"/>
      <point x="57" y="296" type="curve" smooth="yes"/>
      <point x="48" y="250"/>
      <point x="99" y="182"/>
      <point x="164" y="182" type="curve" smooth="yes"/>
      <point x="183" y="182"/>
      <point x="192" y="199"/>
      <point x="192" y="225" type="curve" smooth="yes"/>
      <point x="192" y="270" type="line"/>
      <point x="425" y="270" type="line"/>
      <point x="406" y="242"/>
      <point x="395" y="209"/>
      <point x="395" y="173" type="curve" smooth="yes"/>
      <point x="395" y="54"/>
      <point x="488" y="-18"/>
      <point x="642" y="-18" type="curve" smooth="yes"/>
      <point x="695" y="-18"/>
      <point x="740" y="-13"/>
      <point x="783" y="1" type="curve"/>
      <point x="767" y="58" type="line"/>
      <point x="724" y="46"/>
      <point x="682" y="41"/>
      <point x="639" y="41" type="curve" smooth="yes"/>
      <point x="536" y="41"/>
      <point x="465" y="95"/>
      <point x="465" y="172" type="curve" smooth="yes"/>
      <point x="465" y="248"/>
      <point x="537" y="304"/>
      <point x="636" y="304" type="curve" smooth="yes"/>
      <point x="680" y="304"/>
      <point x="724" y="296"/>
      <point x="767" y="281" type="curve"/>
    </contour>
    <contour>
      <point x="192" y="322" type="line"/>
      <point x="192" y="626" type="line"/>
      <point x="709" y="626" type="line"/>
      <point x="709" y="545" type="line"/>
      <point x="562" y="545" type="line" smooth="yes"/>
      <point x="475" y="545"/>
      <point x="416" y="496"/>
      <point x="416" y="423" type="curve" smooth="yes"/>
      <point x="416" y="380"/>
      <point x="438" y="348"/>
      <point x="482" y="324" type="curve"/>
      <point x="481" y="323" type="line"/>
    </contour>
  </outline>
</glyph>
<glyph name="dv_NHYa" format="1">
  <advance width="1312"/>
  <outline>
    <contour>
      <point x="702" y="339" type="line"/>
      <point x="651" y="358"/>
      <point x="600" y="363"/>
      <point x="551" y="363" type="curve" smooth="yes"/>
      <point x="531" y="363"/>
      <point x="516" y="360"/>
      <point x="483" y="360" type="curve" smooth="yes"/>
      <point x="436" y="360"/>
      <point x="401" y="387"/>
      <point x="401" y="424" type="curve" smooth="yes"/>
      <point x="401" y="461"/>
      <point x="436" y="488"/>
      <point x="483" y="488" type="curve" smooth="yes"/>
      <point x="788" y="488" type="line" smooth="yes"/>
      <point x="840" y="488"/>
      <point x="852" y="467"/>
      <point x="852" y="448" type="curve" smooth="yes"/>
      <point x="852" y="417"/>
      <point x="812" y="395"/>
      <point x="771" y="384" type="curve"/>
      <point x="758" y="369" type="line"/>
      <point x="758" y="273"/>
      <point x="858" y="184"/>
      <point x="976" y="184" type="curve" smooth="yes"/>
      <point x="1038" y="184"/>
      <point x="1089" y="204"/>
      <point x="1122" y="237" type="curve"/>
      <point x="1122" y="0" type="line"/>
      <point x="1191" y="-16" type="line"/>
      <point x="1191" y="626" type="line"/>
      <point x="1324" y="626" type="line"/>
      <point x="1309" y="680" type="line"/>
      <point x="-11" y="680" type="line"/>
      <point x="3" y="626" type="line"/>
      <point x="628" y="626" type="line"/>
      <point x="628" y="545" type="line"/>
      <point x="481" y="545" type="line" smooth="yes"/>
      <point x="394" y="545"/>
      <point x="335" y="496"/>
      <point x="335" y="423" type="curve" smooth="yes"/>
      <point x="335" y="407"/>
      <point x="338" y="393"/>
      <point x="343" y="381" type="curve"/>
      <point x="71" y="381" type="line" smooth="yes"/>
      <point x="53" y="381"/>
      <point x="41" y="370"/>
      <point x="38" y="356" type="curve" smooth="yes"/>
      <point x="29" y="309"/>
      <point x="81" y="241"/>
      <point x="145" y="241" type="curve" smooth="yes"/>
      <point x="164" y="241"/>
      <point x="174" y="258"/>
      <point x="174" y="286" type="curve" smooth="yes"/>
      <point x="174" y="330" type="line"/>
      <point x="390" y="330" type="line"/>
      <point x="401" y="324" type="line"/>
      <point x="347" y="288"/>
      <point x="314" y="236"/>
      <point x="314" y="173" type="curve" smooth="yes"/>
      <point x="314" y="54"/>
      <point x="407" y="-18"/>
      <point x="561" y="-18" type="curve" smooth="yes"/>
      <point x="614" y="-18"/>
      <point x="659" y="-13"/>
      <point x="702" y="1" type="curve"/>
      <point x="686" y="58" type="line"/>
      <point x="643" y="46"/>
      <point x="601" y="41"/>
      <point x="558" y="41" type="curve" smooth="yes"/>
      <point x="455" y="41"/>
      <point x="384" y="95"/>
      <point x="384" y="172" type="curve" smooth="yes"/>
      <point x="384" y="248"/>
      <point x="456" y="304"/>
      <point x="555" y="304" type="curve" smooth="yes"/>
      <point x="599" y="304"/>
      <point x="643" y="296"/>
      <point x="686" y="281" type="curve"/>
    </contour>
    <contour>
      <point x="1122" y="626" type="line"/>
      <point x="1122" y="393" type="line" smooth="yes"/>
      <point x="1122" y="298"/>
      <point x="1069" y="241"/>
      <point x="976" y="241" type="curve"/>
      <point x="901" y="246"/>
      <point x="837" y="292"/>
      <point x="824" y="350" type="curve"/>
      <point x="887" y="382"/>
      <point x="911" y="403"/>
      <point x="911" y="456" type="curve" smooth="yes"/>
      <point x="911" y="498"/>
      <point x="871" y="542"/>
      <point x="800" y="542" type="curve" smooth="yes"/>
      <point x="695" y="542" type="line"/>
      <point x="695" y="626" type="line"/>
    </contour>
  </outline>
</glyph>
<glyph name="dv_NHa" format="1">
  <advance width="786"/>
  <outline>
    <contour>
      <point x="702" y="339" type="line"/>
      <point x="651" y="358"/>
      <point x="600" y="363"/>
      <point x="551" y="363" type="curve" smooth="yes"/>
      <point x="531" y="363"/>
      <point x="516" y="360"/>
      <point x="483" y="360" type="curve" smooth="yes"/>
      <point x="436" y="360"/>
      <point x="401" y="387"/>
      <point x="401" y="424" type="curve" smooth="yes"/>
      <point x="401" y="461"/>
      <point x="436" y="488"/>
      <point x="483" y="488" type="curve" smooth="yes"/>
      <point x="695" y="488" type="line"/>
      <point x="695" y="626" type="line"/>
      <point x="798" y="626" type="line"/>
      <point x="783" y="680" type="line"/>
      <point x="-11" y="680" type="line"/>
      <point x="3" y="626" type="line"/>
      <point x="628" y="626" type="line"/>
      <point x="628" y="545" type="line"/>
      <point x="481" y="545" type="line" smooth="yes"/>
      <point x="394" y="545"/>
      <point x="335" y="496"/>
      <point x="335" y="423" type="curve" smooth="yes"/>
      <point x="335" y="407"/>
      <point x="338" y="393"/>
      <point x="343" y="381" type="curve"/>
      <point x="71" y="381" type="line" smooth="yes"/>
      <point x="53" y="381"/>
      <point x="41" y="370"/>
      <point x="38" y="356" type="curve" smooth="yes"/>
      <point x="29" y="309"/>
      <point x="81" y="241"/>
      <point x="145" y="241" type="curve" smooth="yes"/>
      <point x="164" y="241"/>
      <point x="174" y="258"/>
      <point x="174" y="286" type="curve" smooth="yes"/>
      <point x="174" y="330" type="line"/>
      <point x="390" y="330" type="line"/>
      <point x="401" y="324" type="line"/>
      <point x="347" y="288"/>
      <point x="314" y="236"/>
      <point x="314" y="173" type="curve" smooth="yes"/>
      <point x="314" y="54"/>
      <point x="407" y="-18"/>
      <point x="561" y="-18" type="curve" smooth="yes"/>
      <point x="614" y="-18"/>
      <point x="659" y="-13"/>
      <point x="702" y="1" type="curve"/>
      <point x="686" y="58" type="line"/>
      <point x="643" y="46"/>
      <point x="601" y="41"/>
      <point x="558" y="41" type="curve" smooth="yes"/>
      <point x="455" y="41"/>
      <point x="384" y="95"/>
      <point x="384" y="172" type="curve" smooth="yes"/>
      <point x="384" y="248"/>
      <point x="456" y="304"/>
      <point x="555" y="304" type="curve" smooth="yes"/>
      <point x="599" y="304"/>
      <point x="643" y="296"/>
      <point x="686" y="281" type="curve"/>
    </contour>
  </outline>
</glyph>
<glyph name="dv_NyHa" format="1">
  <advance width="960"/>
  <outline>
    <contour>
      <point x="200" y="83" type="curve" smooth="yes"/>
      <point x="314" y="83"/>
      <point x="402" y="140"/>
      <point x="414" y="260" type="curve"/>
      <point x="512" y="260" type="line"/>
      <point x="496" y="234"/>
      <point x="488" y="205"/>
      <point x="488" y="173" type="curve" smooth="yes"/>
      <point x="488" y="54"/>
      <point x="581" y="-18"/>
      <point x="735" y="-18" type="curve" smooth="yes"/>
      <point x="788" y="-18"/>
      <point x="833" y="-13"/>
      <point x="876" y="1" type="curve"/>
      <point x="860" y="58" type="line"/>
      <point x="817" y="46"/>
      <point x="775" y="41"/>
      <point x="732" y="41" type="curve" smooth="yes"/>
      <point x="629" y="41"/>
      <point x="558" y="95"/>
      <point x="558" y="172" type="curve" smooth="yes"/>
      <point x="558" y="248"/>
      <point x="630" y="304"/>
      <point x="729" y="304" type="curve" smooth="yes"/>
      <point x="773" y="304"/>
      <point x="817" y="296"/>
      <point x="860" y="281" type="curve"/>
      <point x="876" y="339" type="line"/>
      <point x="825" y="358"/>
      <point x="774" y="363"/>
      <point x="725" y="363" type="curve" smooth="yes"/>
      <point x="705" y="363"/>
      <point x="690" y="360"/>
      <point x="657" y="360" type="curve" smooth="yes"/>
      <point x="610" y="360"/>
      <point x="575" y="387"/>
      <point x="575" y="424" type="curve" smooth="yes"/>
      <point x="575" y="461"/>
      <point x="610" y="488"/>
      <point x="657" y="488" type="curve" smooth="yes"/>
      <point x="869" y="488" type="line"/>
      <point x="869" y="626" type="line"/>
      <point x="972" y="626" type="line"/>
      <point x="957" y="680" type="line"/>
      <point x="-11" y="680" type="line"/>
      <point x="3" y="626" type="line"/>
      <point x="802" y="626" type="line"/>
      <point x="802" y="545" type="line"/>
      <point x="655" y="545" type="line" smooth="yes"/>
      <point x="568" y="545"/>
      <point x="509" y="496"/>
      <point x="509" y="423" type="curve" smooth="yes"/>
      <point x="509" y="380"/>
      <point x="531" y="348"/>
      <point x="575" y="324" type="curve"/>
      <point x="556" y="310" type="line"/>
      <point x="556" y="315" type="line"/>
      <point x="414" y="315" type="line"/>
      <point x="403" y="438"/>
      <point x="315" y="498"/>
      <point x="200" y="498" type="curve" smooth="yes"/>
      <point x="159" y="498"/>
      <point x="119" y="493"/>
      <point x="85" y="481" type="curve"/>
      <point x="99" y="428" type="line"/>
      <point x="129" y="435"/>
      <point x="166" y="443"/>
      <point x="200" y="443" type="curve" smooth="yes"/>
      <point x="288" y="443"/>
      <point x="346" y="388"/>
      <point x="346" y="290" type="curve" smooth="yes"/>
      <point x="346" y="192"/>
      <point x="288" y="138"/>
      <point x="200" y="138" type="curve"/>
      <point x="131" y="139"/>
      <point x="71" y="162"/>
      <point x="24" y="197" type="curve"/>
      <point x="11" y="139" type="line"/>
      <point x="54" y="109"/>
      <point x="119" y="83"/>
    </contour>
  </outline>
</glyph>
<glyph name="dv_PhHa" format="1">
  <advance width="1196"/>
  <outline>
    <contour>
      <point x="1112" y="339" type="line"/>
      <point x="1061" y="358"/>
      <point x="1010" y="363"/>
      <point x="961" y="363" type="curve" smooth="yes"/>
      <point x="941" y="363"/>
      <point x="926" y="360"/>
      <point x="893" y="360" type="curve" smooth="yes"/>
      <point x="846" y="360"/>
      <point x="811" y="387"/>
      <point x="811" y="424" type="curve" smooth="yes"/>
      <point x="811" y="461"/>
      <point x="846" y="488"/>
      <point x="893" y="488" type="curve" smooth="yes"/>
      <point x="1105" y="488" type="line"/>
      <point x="1105" y="626" type="line"/>
      <point x="1208" y="626" type="line"/>
      <point x="1193" y="680" type="line"/>
      <point x="-11" y="680" type="line"/>
      <point x="3" y="626" type="line"/>
      <point x="103" y="626" type="line"/>
      <point x="103" y="387" type="line" smooth="yes"/>
      <point x="103" y="255"/>
      <point x="185" y="178"/>
      <point x="310" y="178" type="curve" smooth="yes"/>
      <point x="372" y="178"/>
      <point x="424" y="198"/>
      <point x="459" y="231" type="curve"/>
      <point x="459" y="0" type="line"/>
      <point x="528" y="-16" type="line"/>
      <point x="528" y="352" type="line"/>
      <point x="552" y="388"/>
      <point x="598" y="453"/>
      <point x="689" y="453" type="curve" smooth="yes"/>
      <point x="748" y="453" type="line"/>
      <point x="746" y="443"/>
      <point x="745" y="433"/>
      <point x="745" y="423" type="curve" smooth="yes"/>
      <point x="745" y="380"/>
      <point x="767" y="348"/>
      <point x="811" y="324" type="curve"/>
      <point x="757" y="288"/>
      <point x="724" y="236"/>
      <point x="724" y="173" type="curve" smooth="yes"/>
      <point x="724" y="54"/>
      <point x="817" y="-18"/>
      <point x="971" y="-18" type="curve" smooth="yes"/>
      <point x="1024" y="-18"/>
      <point x="1069" y="-13"/>
      <point x="1112" y="1" type="curve"/>
      <point x="1096" y="58" type="line"/>
      <point x="1053" y="46"/>
      <point x="1011" y="41"/>
      <point x="968" y="41" type="curve" smooth="yes"/>
      <point x="865" y="41"/>
      <point x="794" y="95"/>
      <point x="794" y="172" type="curve" smooth="yes"/>
      <point x="794" y="248"/>
      <point x="866" y="304"/>
      <point x="965" y="304" type="curve" smooth="yes"/>
      <point x="1009" y="304"/>
      <point x="1053" y="296"/>
      <point x="1096" y="281" type="curve"/>
    </contour>
    <contour>
      <point x="459" y="387" type="line" smooth="yes"/>
      <point x="459" y="292"/>
      <point x="408" y="236"/>
      <point x="316" y="236" type="curve" smooth="yes"/>
      <point x="218" y="236"/>
      <point x="170" y="294"/>
      <point x="170" y="387" type="curve" smooth="yes"/>
      <point x="170" y="626" type="line"/>
      <point x="459" y="626" type="line"/>
    </contour>
    <contour>
      <point x="528" y="626" type="line"/>
      <point x="1038" y="626" type="line"/>
      <point x="1038" y="545" type="line"/>
      <point x="891" y="545" type="line" smooth="yes"/>
      <point x="844" y="545"/>
      <point x="805" y="530"/>
      <point x="779" y="506" type="curve"/>
      <point x="687" y="506" type="line" smooth="yes"/>
      <point x="603" y="506"/>
      <point x="560" y="470"/>
      <point x="528" y="437" type="curve"/>
    </contour>
  </outline>
</glyph>
<glyph name="dv_THa" format="1">
  <advance width="891"/>
  <outline>
    <contour>
      <point x="807" y="339" type="line"/>
      <point x="756" y="358"/>
      <point x="705" y="363"/>
      <point x="656" y="363" type="curve" smooth="yes"/>
      <point x="636" y="363"/>
      <point x="621" y="360"/>
      <point x="588" y="360" type="curve" smooth="yes"/>
      <point x="541" y="360"/>
      <point x="506" y="387"/>
      <point x="506" y="424" type="curve" smooth="yes"/>
      <point x="506" y="461"/>
      <point x="541" y="488"/>
      <point x="588" y="488" type="curve" smooth="yes"/>
      <point x="800" y="488" type="line"/>
      <point x="800" y="626" type="line"/>
      <point x="903" y="626" type="line"/>
      <point x="888" y="680" type="line"/>
      <point x="-11" y="680" type="line"/>
      <point x="3" y="626" type="line"/>
      <point x="733" y="626" type="line"/>
      <point x="733" y="545" type="line"/>
      <point x="586" y="545" type="line" smooth="yes"/>
      <point x="509" y="545"/>
      <point x="454" y="507"/>
      <point x="442" y="448" type="curve"/>
      <point x="241" y="448" type="line" smooth="yes"/>
      <point x="134" y="448"/>
      <point x="71" y="381"/>
      <point x="71" y="292" type="curve" smooth="yes"/>
      <point x="71" y="197"/>
      <point x="156" y="78"/>
      <point x="223" y="-18" type="curve"/>
      <point x="280" y="2" type="line"/>
      <point x="226" y="86"/>
      <point x="140" y="206"/>
      <point x="140" y="288" type="curve" smooth="yes"/>
      <point x="140" y="358"/>
      <point x="185" y="393"/>
      <point x="276" y="393" type="curve" smooth="yes"/>
      <point x="444" y="393" type="line"/>
      <point x="452" y="364"/>
      <point x="473" y="342"/>
      <point x="506" y="324" type="curve"/>
      <point x="452" y="288"/>
      <point x="419" y="236"/>
      <point x="419" y="173" type="curve" smooth="yes"/>
      <point x="419" y="54"/>
      <point x="512" y="-18"/>
      <point x="666" y="-18" type="curve" smooth="yes"/>
      <point x="719" y="-18"/>
      <point x="764" y="-13"/>
      <point x="807" y="1" type="curve"/>
      <point x="791" y="58" type="line"/>
      <point x="748" y="46"/>
      <point x="706" y="41"/>
      <point x="663" y="41" type="curve" smooth="yes"/>
      <point x="560" y="41"/>
      <point x="489" y="95"/>
      <point x="489" y="172" type="curve" smooth="yes"/>
      <point x="489" y="248"/>
      <point x="561" y="304"/>
      <point x="660" y="304" type="curve" smooth="yes"/>
      <point x="704" y="304"/>
      <point x="748" y="296"/>
      <point x="791" y="281" type="curve"/>
    </contour>
  </outline>
</glyph>
<glyph name="dv_ThHa" format="1">
  <advance width="886"/>
  <outline>
    <contour>
      <point x="802" y="339" type="line"/>
      <point x="751" y="358"/>
      <point x="700" y="363"/>
      <point x="651" y="363" type="curve" smooth="yes"/>
      <point x="631" y="363"/>
      <point x="616" y="360"/>
      <point x="583" y="360" type="curve" smooth="yes"/>
      <point x="536" y="360"/>
      <point x="501" y="387"/>
      <point x="501" y="424" type="curve" smooth="yes"/>
      <point x="501" y="461"/>
      <point x="536" y="488"/>
      <point x="583" y="488" type="curve" smooth="yes"/>
      <point x="795" y="488" type="line"/>
      <point x="795" y="626" type="line"/>
      <point x="898" y="626" type="line"/>
      <point x="883" y="680" type="line"/>
      <point x="339" y="680" type="line"/>
      <point x="353" y="626" type="line"/>
      <point x="728" y="626" type="line"/>
      <point x="728" y="545" type="line"/>
      <point x="581" y="545" type="line" smooth="yes"/>
      <point x="494" y="545"/>
      <point x="435" y="496"/>
      <point x="435" y="423" type="curve" smooth="yes"/>
      <point x="435" y="380"/>
      <point x="457" y="348"/>
      <point x="501" y="324" type="curve"/>
      <point x="474" y="306"/>
      <point x="452" y="284"/>
      <point x="437" y="259" type="curve"/>
      <point x="412" y="233"/>
      <point x="375" y="219"/>
      <point x="329" y="219" type="curve" smooth="yes"/>
      <point x="243" y="219"/>
      <point x="190" y="281"/>
      <point x="176" y="338" type="curve"/>
      <point x="239" y="370"/>
      <point x="311" y="403"/>
      <point x="311" y="526" type="curve" smooth="yes"/>
      <point x="311" y="622"/>
      <point x="231" y="694"/>
      <point x="160" y="694" type="curve" smooth="yes"/>
      <point x="91" y="694"/>
      <point x="45" y="649"/>
      <point x="45" y="589" type="curve" smooth="yes"/>
      <point x="45" y="531"/>
      <point x="99" y="493"/>
      <point x="157" y="493" type="curve" smooth="yes"/>
      <point x="197" y="493"/>
      <point x="234" y="517"/>
      <point x="251" y="544" type="curve"/>
      <point x="252" y="535"/>
      <point x="253" y="526"/>
      <point x="253" y="517" type="curve" smooth="yes"/>
      <point x="253" y="420"/>
      <point x="166" y="389"/>
      <point x="123" y="377" type="curve"/>
      <point x="111" y="363" type="line"/>
      <point x="111" y="267"/>
      <point x="201" y="161"/>
      <point x="329" y="161" type="curve" smooth="yes"/>
      <point x="360" y="161"/>
      <point x="389" y="166"/>
      <point x="414" y="176" type="curve"/>
      <point x="414" y="173" type="line" smooth="yes"/>
      <point x="414" y="54"/>
      <point x="507" y="-18"/>
      <point x="661" y="-18" type="curve" smooth="yes"/>
      <point x="714" y="-18"/>
      <point x="759" y="-13"/>
      <point x="802" y="1" type="curve"/>
      <point x="786" y="58" type="line"/>
      <point x="743" y="46"/>
      <point x="701" y="41"/>
      <point x="658" y="41" type="curve" smooth="yes"/>
      <point x="555" y="41"/>
      <point x="484" y="95"/>
      <point x="484" y="172" type="curve" smooth="yes"/>
      <point x="484" y="248"/>
      <point x="556" y="304"/>
      <point x="655" y="304" type="curve" smooth="yes"/>
      <point x="699" y="304"/>
      <point x="743" y="296"/>
      <point x="786" y="281" type="curve"/>
    </contour>
    <contour>
      <point x="162" y="640" type="curve" smooth="yes"/>
      <point x="190" y="640"/>
      <point x="214" y="625"/>
      <point x="230" y="601" type="curve"/>
      <point x="220" y="571"/>
      <point x="201" y="542"/>
      <point x="160" y="542" type="curve" smooth="yes"/>
      <point x="132" y="542"/>
      <point x="105" y="558"/>
      <point x="105" y="589" type="curve" smooth="yes"/>
      <point x="105" y="624"/>
      <point x="134" y="640"/>
    </contour>
  </outline>
</glyph>
<glyph name="dv_VHa" format="1">
  <advance width="1015"/>
  <outline>
    <contour>
      <point x="931" y="339" type="line"/>
      <point x="880" y="358"/>
      <point x="829" y="363"/>
      <point x="780" y="363" type="curve" smooth="yes"/>
      <point x="760" y="363"/>
      <point x="745" y="360"/>
      <point x="712" y="360" type="curve" smooth="yes"/>
      <point x="665" y="360"/>
      <point x="630" y="387"/>
      <point x="630" y="424" type="curve" smooth="yes"/>
      <point x="630" y="461"/>
      <point x="665" y="488"/>
      <point x="712" y="488" type="curve" smooth="yes"/>
      <point x="924" y="488" type="line"/>
      <point x="924" y="626" type="line"/>
      <point x="1027" y="626" type="line"/>
      <point x="1012" y="680" type="line"/>
      <point x="-11" y="680" type="line"/>
      <point x="3" y="626" type="line"/>
      <point x="857" y="626" type="line"/>
      <point x="857" y="545" type="line"/>
      <point x="710" y="545" type="line" smooth="yes"/>
      <point x="623" y="545"/>
      <point x="564" y="496"/>
      <point x="564" y="423" type="curve" smooth="yes"/>
      <point x="564" y="380"/>
      <point x="586" y="348"/>
      <point x="630" y="324" type="curve"/>
      <point x="576" y="288"/>
      <point x="543" y="236"/>
      <point x="543" y="173" type="curve" smooth="yes"/>
      <point x="543" y="54"/>
      <point x="636" y="-18"/>
      <point x="790" y="-18" type="curve" smooth="yes"/>
      <point x="843" y="-18"/>
      <point x="888" y="-13"/>
      <point x="931" y="1" type="curve"/>
      <point x="915" y="58" type="line"/>
      <point x="872" y="46"/>
      <point x="830" y="41"/>
      <point x="787" y="41" type="curve" smooth="yes"/>
      <point x="684" y="41"/>
      <point x="613" y="95"/>
      <point x="613" y="172" type="curve" smooth="yes"/>
      <point x="613" y="248"/>
      <point x="685" y="304"/>
      <point x="784" y="304" type="curve" smooth="yes"/>
      <point x="828" y="304"/>
      <point x="872" y="296"/>
      <point x="915" y="281" type="curve"/>
    </contour>
    <contour>
      <point x="55" y="305" type="curve" smooth="yes"/>
      <point x="55" y="189"/>
      <point x="154" y="102"/>
      <point x="276" y="102" type="curve"/>
      <point x="405" y="104"/>
      <point x="491" y="205"/>
      <point x="491" y="306" type="curve" smooth="yes"/>
      <point x="491" y="419"/>
      <point x="394" y="509"/>
      <point x="273" y="510" type="curve"/>
      <point x="141" y="509"/>
      <point x="55" y="413"/>
    </contour>
    <contour>
      <point x="273" y="453" type="curve" smooth="yes"/>
      <point x="356" y="453"/>
      <point x="416" y="393"/>
      <point x="416" y="305" type="curve" smooth="yes"/>
      <point x="416" y="230"/>
      <point x="365" y="158"/>
      <point x="273" y="158" type="curve" smooth="yes"/>
      <point x="190" y="158"/>
      <point x="131" y="219"/>
      <point x="131" y="306" type="curve" smooth="yes"/>
      <point x="131" y="381"/>
      <point x="182" y="453"/>
    </contour>
  </outline>
</glyph>
<glyph name="grave.case" format="1">
  <advance width="162"/>
  <outline>
    <contour>
      <point x="101" y="702" type="move" name="_topU"/>
    </contour>
    <contour>
      <point x="16" y="892" type="line"/>
      <point x="101" y="739" type="line"/>
      <point x="148" y="739" type="line"/>
      <point x="87" y="892" type="line"/>
    </contour>
  </outline>
</glyph>
